<svg width="177" height="55" viewBox="0 0 177 55" fill="none" xmlns="http://www.w3.org/2000/svg">
<path d="M38.5657 10.2726C33.2121 10.0129 27.8591 10.4284 22.5182 10.6686C22.6696 11.5529 23.3548 12.587 22.842 13.4617C22.3293 14.3364 22.4451 13.6031 22.3195 14.394C21.421 20.1976 20.8382 26.0246 19.8865 31.8284L19.2627 38.1048L27.5847 35.6316C28.7107 35.2228 29.8747 34.9043 31.0007 34.4954C32.108 34.0922 33.7244 32.9402 34.5373 34.4245C35.3501 35.9087 34.3435 38.2772 33.2368 39.3558C32.0755 40.4935 31.1111 39.7962 29.6945 39.7213C29.0258 39.6858 27.9848 39.8038 27.2892 39.8739C24.6267 40.1302 21.9921 40.796 19.3872 41.3398C19.285 41.3662 19.242 41.4103 19.2252 41.509C19.1391 41.8586 19.3269 42.5291 19.2455 42.9554C19.1165 43.6614 17.9674 45.7716 17.0245 45.0523C16.2232 44.4393 16.6296 43.0417 16.611 42.2117C16.5924 41.3816 16.6967 42.073 16.5109 42.0696C11.9905 43.331 7.27238 44.5028 2.98145 46.3988C2.70259 46.5246 2.09131 46.7258 1.88891 46.8718C1.43525 47.1902 1.14916 47.8804 0.357583 47.4714C-0.0825 46.7705 0.237423 45.9336 0.721343 45.3329C1.56884 44.265 5.70496 42.8094 7.16733 42.2499C10.2891 41.0683 13.6025 40.1695 16.6883 38.9909C19.7741 37.8122 17.1444 38.8671 17.2213 38.6763L21.6976 10.7953C19.2863 10.8794 16.8946 11.4223 14.6964 12.3411C14.7064 12.9081 15.2603 13.0442 15.2408 13.7333C15.2102 14.8005 14.1731 16.5651 13.2146 15.0499C12.3113 13.6277 12.8712 11.5364 14.0093 10.3782C15.4369 8.9271 19.6542 8.14233 21.7254 7.76107C28.3997 6.51944 35.2608 6.31948 41.9619 5.2339C43.3425 5.31168 43.7884 6.6043 43.6933 7.73754C43.537 9.59568 41.6897 12.3664 40.4652 13.8235C39.8981 14.4957 38.5476 15.8068 37.7809 14.6251C37.0229 13.4448 37.9186 11.363 38.5657 10.2726Z" fill="#E8E4DD"/>
<path d="M125.488 40.5194C125.441 40.404 125.473 40.1839 125.468 40.0571L125.304 39.9976C122.389 42.0598 119.356 43.972 116.336 45.898C113.316 47.824 112.896 48.6793 111.514 47.8468C109.901 46.8676 111.78 43.394 112.652 42.3729C113.524 41.3517 117.44 39.368 119.224 38.2951C121.881 36.71 124.44 34.9731 127.11 33.4018C127.486 33.0746 128.09 31.0642 128.316 30.4592C129.848 26.2883 131.333 22.0917 132.802 17.9155C133.1 17.0604 133.483 16.2273 133.74 15.3573C131.577 14.9011 129.187 14.9864 127.049 15.4936C124.911 16.0008 124.274 16.2775 123.87 16.6747C123.465 17.0719 123.91 16.8768 123.883 16.9917C123.569 18.1889 122.443 17.5832 123.152 16.289C123.862 14.9948 126.329 14.09 127.43 13.6875C134.866 10.9586 148.975 11.8605 143.992 22.7963C141.171 28.9782 135.179 33.2225 129.642 37.0611C129.211 38.2692 128.824 39.3685 127.822 40.2708C127.303 40.7423 125.932 41.4659 125.504 40.5253L125.488 40.5194ZM130.522 31.2257C133.203 29.2566 136 27.3926 138.418 25.1225C140.835 22.8525 140.456 23.1874 140.888 21.8369C141.915 18.6154 137.844 16.3503 135.112 15.6779L130.834 29.7779L130.53 31.2287L130.522 31.2257Z" fill="#E8E4DD"/>
<path d="M153.286 29.0431C152.329 30.8621 150.102 34.4522 147.636 34.3337C146.958 34.3051 146.491 34.2331 146.049 33.7514C144.998 32.6188 144.738 30.9158 144.791 29.4554C144.958 25.1849 148.306 18.13 152.805 16.5783C153.07 16.4841 153.496 16.4823 153.712 16.3636C154.151 16.1275 154.585 15.4599 155.22 15.4313C157.169 15.3519 156.815 17.7957 156.9 18.9652C157.033 20.64 158.377 24.6876 159.539 25.9471C160.701 27.2066 161.121 26.7733 161.605 27.5823C162.845 29.6304 160.935 34.2314 158.408 34.7365C155.338 35.3521 154.271 30.9759 153.279 29.0335L153.286 29.0431ZM152.045 20.1581C150.11 21.4635 148.216 24.4042 148.105 26.6744C148.085 27.0512 148.296 28.3667 148.871 28.1178C149.446 27.8688 150.147 26.7275 150.446 26.0647C151.265 24.2243 151.623 22.1187 152.044 20.1663L152.045 20.1581Z" fill="#E8E4DD"/>
<path d="M84.0109 28.8258C83.8132 29.0486 84.1746 32.7168 84.3014 33.2765C86.6314 33.9311 85.8787 36.6342 84.9079 38.1136C83.8428 39.7303 81.4584 40.0211 80.7379 37.9941C80.4603 37.2254 80.5915 36.4016 80.4336 35.6598C80.2757 34.918 80.4326 35.4571 80.3056 35.4206C79.5325 36.6772 78.2003 38.4554 76.7075 38.9849C75.3758 39.4549 74.5515 39.1337 73.8283 38.0093C71.849 34.9273 74.9192 29.2475 76.845 26.5901C78.167 24.7682 81.2162 21.1953 83.8724 21.9677C85.0902 22.3242 85.4414 23.9652 85.3603 25.0162C85.3212 25.5588 84.6228 28.4644 84.2827 28.7411C83.9427 29.0179 84.0324 28.8038 84.0095 28.834L84.0109 28.8258ZM84.1004 27.7255C84.29 26.7672 84.9601 25.6466 84.3445 24.7245C84.4644 25.6377 84.1721 26.5211 84.0628 27.4243C83.9536 28.3274 83.9419 27.7179 84.1004 27.7255ZM81.7072 24.5712L80.8097 25.1503C79.5503 26.2391 78.6335 27.558 77.8252 28.9695C77.0169 30.3811 75.8254 32.3751 76.4859 33.3463C76.7268 33.7041 77.0398 33.4823 77.3513 33.2687C79.7606 31.6312 80.222 26.8828 81.7159 24.5725L81.7072 24.5712Z" fill="#E8E4DD"/>
<path d="M167.595 29.764C166.261 30.0394 165.681 28.8022 165.278 27.8286C164.155 25.1402 163.809 21.9554 163.19 19.1252L162.482 20.1555C161.826 20.5692 161.861 19.7897 161.845 19.3569C161.793 18.0489 161.765 15.6559 162.316 14.5002C163.128 12.8106 163.869 14.4526 164.253 15.3811C165.161 17.5554 165.661 19.8354 166.805 21.9867C167.1 22.5471 167.836 24.0111 168.617 23.9119C169.397 23.8128 170.374 21.8279 170.758 21.3976C171.066 21.0483 171.729 20.5935 171.934 20.3296C172.139 20.0658 173.55 17.1942 173.702 16.7196C173.858 16.2203 173.731 15.9729 174.026 15.3347C174.321 14.6965 175.116 13.6288 175.49 12.7328L176.097 12.4549C176.547 12.5749 176.009 13.91 175.915 14.1994C175.701 14.8839 175.432 15.5768 175.184 16.2559C174.689 17.5976 173.543 19.7421 173.261 20.9816C172.979 22.2211 173.308 21.5965 173.28 21.913C173.066 24.3193 171.35 26.0045 170.336 28.0005C169.379 29.8702 168.421 33.0988 167.757 35.1741C166.983 37.5869 166.255 40.1419 165.849 42.6367C165.617 44.002 165.709 45.1304 165.005 46.4484C164.302 47.7663 162.735 49.3057 161.785 47.5303C160.863 45.8013 162.65 42.5994 163.284 40.8571C163.809 39.444 164.248 38.0093 164.79 36.5988C165.668 34.3035 166.622 32.0365 167.593 29.7722L167.595 29.764Z" fill="#E8E4DD"/>
<path d="M99.7053 19.8833C100.965 21.4026 100.572 25.174 100.7 27.0844C100.744 27.7664 100.896 29.3766 101.17 29.959C101.443 30.5414 101.256 30.0231 101.343 29.9857C101.764 29.8059 102.351 29.1199 102.864 28.8698C104.539 28.0559 104.809 30.0643 104.554 31.1983C104.192 32.8052 102.419 35.0386 100.991 35.9665C97.3768 38.3213 97.5477 32.5152 97.5611 30.6098C97.571 29.1426 97.9027 26.9317 97.622 25.5548C97.3413 24.178 97.6804 25.4204 97.4599 25.4117C96.2665 27.3125 95.3591 29.3587 94.2408 31.288C93.4853 32.598 91.4515 36.0996 89.8435 36.3666C87.6425 36.7278 88.5898 33.4555 88.7298 32.3714C89.056 29.9317 89.6123 27.3925 89.5263 24.923C89.5158 24.5669 89.4421 23.3823 89.337 23.1129C89.2319 22.8435 89.0817 23.0482 88.9977 22.9678L88.9453 22.8584C89.2047 21.4382 89.7901 21.5453 90.1381 22.8397C90.7257 25.0742 90.2675 27.6116 90.4275 29.9068C90.4494 30.2478 90.4232 30.767 90.655 31.0222C92.3839 27.9041 93.8554 24.3159 96.0525 21.4725C96.771 20.5366 98.5006 18.4062 99.7154 19.8764L99.7053 19.8833Z" fill="#E8E4DD"/>
<path d="M48.862 41.8838C47.3098 42.9191 46.7919 40.7966 46.8714 39.7032C47.0705 36.9148 47.1743 34.3733 46.9671 31.5729C46.7599 28.7724 46.6101 27.9306 45.9173 26.2623C44.982 27.6375 44.135 29.0684 43.3456 30.5251C41.9711 33.0732 40.7218 36.451 39.1373 38.7726C37.5527 41.0942 37.433 40.4934 36.9253 39.2503C36.7736 38.8893 36.8787 38.0108 36.9255 37.5792C37.1777 35.3138 37.5956 33.0655 37.9098 30.8012C38.1153 29.2799 37.9758 27.3339 38.8348 25.9893C39.4509 25.0292 39.8197 25.3139 40.1556 26.2098C40.4915 27.1056 40.6581 27.8487 40.6605 28.0432C40.6837 28.6376 40.3005 30.0556 39.4282 29.6511C39.3044 30.7968 39.1604 31.9563 39.1071 33.1044C39.0539 34.2525 39.0811 33.362 39.2312 33.4189C40.2651 31.0462 41.3479 28.6472 42.6461 26.3911C43.3388 25.1896 44.2501 23.642 45.2494 22.6735C48.1626 19.8476 48.8825 24.5924 49.1515 26.5077C49.5864 29.588 49.6857 32.7094 50.2358 35.7906C50.3486 36.4325 50.6427 37.0518 50.6865 37.7338C50.7649 38.9951 49.9647 41.1422 48.8533 41.8825L48.862 41.8838Z" fill="#E8E4DD"/>
<path d="M109.835 15.5873L109.691 15.7592C109.661 18.751 109.25 21.743 109.23 24.728C109.211 27.7129 109.248 28.436 109.831 29.5472C109.885 29.6484 109.91 29.762 110.065 29.6846C111.027 29.0395 111.867 28.2237 112.813 27.5677C114.875 26.1468 114.839 28.6564 114.338 29.9804C113.761 31.4951 110.45 35.3568 108.996 36.23C107.542 37.1032 106.043 36.2643 106.083 34.3039C106.169 29.8859 107.098 24.7876 107.732 20.3864C107.957 18.8006 108.269 17.2281 108.45 15.6438L105.326 15.8966C104.87 16.3835 104.37 15.9856 104.459 15.4085C104.615 14.3353 105.79 14.2632 106.721 14.01C107.652 13.7568 108.539 13.6572 108.627 13.502C108.912 11.7228 109.18 9.94092 109.466 8.15347C109.73 6.5483 109.891 4.66549 110.448 3.11388C111.005 1.56228 110.74 2.44145 111.041 2.28539C111.194 2.27516 111.196 2.41899 111.233 2.51746C111.269 2.61594 111.611 4.00214 111.136 3.8192L110.917 3.27904C110.33 6.57318 110.082 9.91112 109.843 13.2422C109.92 13.3638 112.462 12.5655 112.728 12.463C113.834 12.0679 115.769 10.6612 116.367 12.3655C116.889 13.8387 115.916 16.5838 114.143 16.935L112.177 15.9652L109.841 15.6051L109.835 15.5873Z" fill="#E8E4DD"/>
<path d="M69.4588 8.84779C69.8176 9.13943 69.2759 12.2718 69.2228 12.8966C69.1024 14.4395 69.037 16.0247 68.9685 17.5756C68.903 19.1608 68.8722 20.7513 68.86 22.3362C70.3005 22.0097 71.839 21.6813 73.2268 21.1947C74.6146 20.7081 75.3723 20.1159 76.0469 20.1692C77.3713 20.2637 76.9886 22.357 76.6871 23.1377C75.7274 25.6485 74.3426 25.0214 72.1154 25.0664C71.0105 25.0902 69.862 25.3183 68.7663 25.4448C68.9155 28.7427 68.8294 32.2238 69.7115 35.4405C69.92 36.1985 70.2814 36.7354 70.5022 37.3687C70.7229 38.002 70.4228 39.61 69.9081 40.3916C68.8901 41.9397 67.5632 41.6507 67.3594 39.8215C67.1557 37.9923 67.1121 34.2295 67.1052 31.7132C67.0982 29.1968 67.1703 27.7815 67.2828 25.8153C67.2203 25.7129 65.066 26.478 64.9311 26.5923C64.7963 26.7066 64.557 27.539 64.3395 27.8262C63.5869 28.8581 62.5111 28.0846 62.566 26.9789C62.663 24.7909 65.4569 23.4491 67.3497 22.8124C67.5116 20.9214 67.5582 19.0294 67.6927 17.1426C67.7977 15.6902 68.1982 13.7009 68.1581 12.3189C68.1526 12.0902 67.9579 12.0348 67.9183 11.9021C67.8553 11.6983 68.055 10.7331 68.1271 10.4657C68.1992 10.1982 68.9337 8.43768 69.4487 8.85469L69.4588 8.84779Z" fill="#E8E4DD"/>
<path d="M61.6118 24.1141C61.4464 23.886 60.7759 23.7573 60.4934 23.7476C59.5323 23.7091 58.1769 24.6312 57.6274 25.3568C58.2994 28.6087 61.2332 31.5593 60.9408 35.0002C60.7478 37.2831 59.4312 40.1694 57.3211 41.4056C56.3845 41.9533 54.5097 42.4324 53.6482 41.599C51.8877 39.8928 52.7661 35.8248 54.9535 34.7609C56.8117 33.8572 56.2709 36.306 57.6332 36.1784C58.9954 36.0508 58.1385 35.8174 58.0742 35.3601C57.5646 31.4665 53.2225 27.5053 56.7329 23.4126C58.5948 21.235 63.283 20.3962 62.7969 24.5584C62.7583 24.8901 62.2261 27.3402 61.6183 26.5291C61.0105 25.7179 61.9354 24.5607 61.6146 24.0976L61.6118 24.1141Z" fill="#E8E4DD"/>
</svg>
