<svg width="250" height="157" viewBox="0 0 250 157" fill="none" xmlns="http://www.w3.org/2000/svg">
<path d="M247.874 71.6166C248.186 71.815 248.574 72.0509 248.93 72.6409C249.329 73.2277 249.264 74.2965 248.953 74.7698C248.355 75.7488 247.77 75.9664 247.218 76.2573C241.113 77.8768 236.772 78.0882 231.14 78.9742C227.83 79.4154 224.287 79.8068 220.234 80.0395C208.313 80.7231 206.477 80.0637 192.866 81.277C188.623 81.6583 184.368 81.9775 180.364 82.2782C171.536 82.909 163.92 84.0628 160.07 85.4002C156.527 86.5994 155.224 86.9403 152.318 87.9687C151.998 88.0502 151.67 88.1973 151.558 88.2845C151.501 88.3284 151.528 88.2967 151.525 88.2333C151.522 88.1704 151.493 88.2013 151.551 88.3252C151.707 88.7644 152.922 89.5616 154.28 90.1909C158.337 92.0405 161.774 93.2489 165.048 94.5459C167.931 95.6657 170.738 96.7789 174.028 98.0918C180.588 100.74 200.205 107.645 209.298 110.592C209.936 110.799 210.493 110.976 211.017 111.14C215.262 112.676 219.979 113.602 223.649 117.205C223.669 117.231 223.716 117.312 223.73 117.342C225.068 120.857 225.778 124.063 226.882 126.454L226.855 126.407C226.945 126.548 227.039 126.684 227.135 126.814C228.18 128.207 229.331 129.068 230.155 129.772C230.51 130.066 230.647 130.24 230.611 130.291C230.611 130.291 230.611 130.291 230.61 130.291C230.566 130.353 230.253 130.224 229.767 129.881C228.741 129.14 227.429 128.241 226.332 126.766C226.327 126.758 226.313 126.735 226.309 126.726C225.26 124.727 224.31 122.261 223.211 119.669C222.937 119.04 222.674 118.463 222.408 117.942L222.487 118.077C218.017 114.964 215.138 114.425 208.802 111.978C207.257 111.431 205.461 110.821 203.298 110.117C191.14 106.169 183.676 104.273 169.583 98.9217C167.594 98.1606 165.815 97.5024 164.173 96.9055C161.383 95.8895 158.982 95.0583 156.598 94.1628C155.419 93.7177 154.221 93.2501 152.994 92.6883C151.763 92.0002 150.472 91.8639 148.956 89.6924C148.755 89.3191 148.549 88.8172 148.551 88.161C148.545 87.5054 148.845 86.8126 149.197 86.3927C149.92 85.5452 150.606 85.2892 151.231 85.0302C154.543 83.3705 159.668 81.6284 166.036 80.7987C171.927 79.9991 176.32 79.6494 180.11 79.2643C189.948 78.3135 195.279 77.084 210.554 75.7985C216.966 75.2592 223.895 74.7851 230.774 74.3224C235.918 73.9143 242.132 73.7573 245.658 72.9074C245.762 72.8648 245.848 72.8106 245.855 72.8092C245.874 72.8228 245.726 72.8316 245.57 73.3915C245.501 73.6653 245.539 74.0825 245.662 74.3423C245.781 74.6098 245.908 74.725 245.969 74.7808C246.096 74.8818 246.039 74.8166 245.937 74.7737C238.411 71.4599 230.816 70.5025 225.686 69.8679C222.941 69.5611 219.967 69.3035 216.795 69.0905C205.541 68.3257 192.072 67.7723 178.002 67.4033C169.14 67.1653 159.294 67.242 149.167 67.4827C138.684 67.7307 127.925 68.1375 117.777 68.4102C97.8532 68.883 69.6897 70.4606 56.7268 71.6238C55.0676 71.7617 53.559 71.8951 52.2033 72.0212C42.7971 72.9541 39.0184 73.3723 28.2999 75.5181C22.6971 76.6719 15.4685 78.2993 8.73852 80.2758C6.98483 80.7759 5.26864 81.2548 3.61493 81.7335C-0.378444 83.0233 0.347363 82.3561 4.3569 80.851C5.78503 80.3271 7.15839 79.8583 8.46624 79.4204C12.4928 78.0577 15.9045 77.1484 18.2028 76.3125C24.2803 74.1453 26.9669 73.3198 35.0324 72.3574C43.0904 71.4651 46.7623 70.1371 51.4787 69.6737C51.6322 69.6591 51.7812 69.6456 51.9266 69.633C56.2133 69.3277 56.9121 69.4712 80.0245 67.2436C103.914 65.0841 117.058 64.5198 126.13 64.0462C131.373 63.7879 139.95 63.6259 149.096 63.5496C155.776 63.4913 162.755 63.4856 168.995 63.4444C180.915 63.3035 202.707 64.0202 217.092 65.0525C220.628 65.2855 223.711 65.5521 226.096 65.778C238.134 67.1999 238.416 67.6695 247.381 71.3603C247.541 71.4327 247.697 71.511 247.874 71.6166Z" fill="#E8E4DD"/>
<path d="M53.1705 13.6695C53.2255 13.9903 53.327 14.3142 53.4259 14.6138C53.5284 14.9246 53.6269 15.2079 53.7022 15.4932C53.8528 16.0646 53.867 16.5067 53.6445 16.8863C53.4898 17.1502 53.3996 17.2635 53.3579 17.3074C53.3549 17.3106 53.3519 17.3129 53.3497 17.3151C53.3478 17.316 53.3456 17.3177 53.3431 17.319C53.3109 17.3347 53.2073 17.385 53.1214 17.4982C53.0491 17.5935 53.0198 17.6937 53.0059 17.7462C52.9788 17.8491 52.9536 18.0152 52.9164 18.2491L52.9161 18.251C52.3433 21.9514 51.8709 25.6587 51.3914 29.357C50.9116 33.058 50.424 36.7519 49.8198 40.436L49.8172 40.4514L49.8165 40.4671L49.0223 48.455L48.9495 49.1857L49.6579 48.9748L60.2497 45.8267L60.2642 45.823L60.278 45.8173C60.9831 45.5613 61.7021 45.3331 62.4323 45.1011C63.1592 44.8702 63.8977 44.6355 64.6255 44.3712L64.6265 44.3714C65.0003 44.2352 65.4248 44.0329 65.8105 43.8623C66.214 43.6839 66.5993 43.5286 66.9605 43.4428C67.3216 43.3571 67.6157 43.352 67.8539 43.4314C68.0777 43.506 68.3107 43.6744 68.5201 44.0567C68.9454 44.8333 68.9194 45.9021 68.5718 47.0019C68.2268 48.093 67.5951 49.1148 66.9578 49.7358L66.9576 49.7368C66.6338 50.054 66.344 50.2238 66.0769 50.3143C65.8086 50.4052 65.5315 50.4263 65.2179 50.4032C64.8949 50.3794 64.5601 50.3119 64.1559 50.2356C63.7622 50.1612 63.3184 50.0818 62.8315 50.0561C62.1562 50.0203 61.2132 50.1 60.4207 50.1785L59.694 50.2522C56.2691 50.5821 52.8699 51.4398 49.5835 52.1258L49.572 52.129L49.5596 52.1321C49.4514 52.1601 49.3013 52.2148 49.1757 52.3455C49.0592 52.4668 49.01 52.6053 48.9866 52.7175C48.9425 52.8965 48.9391 53.0882 48.945 53.2535C48.951 53.423 48.9688 53.6051 48.985 53.7695C49.0204 54.13 49.0421 54.3994 49.0067 54.5849L49.006 54.5888C48.9769 54.7482 48.8773 55.0368 48.7078 55.3816C48.5416 55.7195 48.3239 56.0781 48.0836 56.3781C47.8368 56.6861 47.5984 56.8911 47.3989 56.9799C47.2756 57.0347 47.1783 57.0445 47.0801 57.0019L46.9813 56.9422C46.6633 56.6988 46.5376 56.2682 46.5365 55.6268C46.536 55.316 46.5642 54.9924 46.5938 54.6615C46.6222 54.3428 46.6541 54.0031 46.6474 53.7055C46.6445 53.5768 46.6477 53.4819 46.6485 53.4142C46.6601 53.3405 46.6637 53.2743 46.6633 53.2278C46.6632 53.2074 46.6623 53.1767 46.6579 53.143C46.6563 53.1302 46.6513 53.0919 46.6367 53.0468C46.6305 53.0278 46.6121 52.9724 46.5703 52.9131C46.5382 52.8678 46.4014 52.6945 46.1441 52.7051C46.0222 52.7102 45.9273 52.7574 45.8662 52.8016C45.8082 52.8436 45.7717 52.8892 45.7514 52.9173C45.7124 52.9714 45.6929 53.0213 45.686 53.0396C45.672 53.0775 45.6645 53.1101 45.6615 53.1257C39.9983 54.7014 34.033 56.1976 28.6019 58.5974L28.5976 58.5996C28.4343 58.6733 28.1808 58.7656 27.888 58.8815C27.6985 58.9565 27.4677 59.0504 27.2835 59.1509L27.1242 59.2489C26.937 59.3803 26.7745 59.5446 26.6495 59.6697C26.512 59.8073 26.4115 59.9058 26.3087 59.9787C26.2146 60.0456 26.1424 60.0731 26.0738 60.0789C26.021 60.0833 25.94 60.0771 25.8205 60.0309C25.5312 59.432 25.7737 58.673 26.3116 58.0052L26.3142 58.0017C26.5158 57.7478 26.9673 57.4187 27.6378 57.0448C28.29 56.6812 29.0895 56.3077 29.9239 55.9498C31.595 55.2331 33.3571 54.5987 34.3008 54.2376L34.3 54.2365C36.2724 53.4901 38.3078 52.8338 40.3514 52.1718C42.3913 51.511 44.4406 50.8453 46.4186 50.0898C47.3987 49.7155 47.924 49.519 48.162 49.4308C48.2215 49.4088 48.2631 49.3936 48.2888 49.3842C48.2907 49.3835 48.2924 49.3827 48.2941 49.3821C48.3026 49.3789 48.3104 49.3767 48.3162 49.3746C48.3199 49.3732 48.3236 49.3715 48.3268 49.3703C48.3283 49.3697 48.3307 49.3692 48.3331 49.3683C48.3342 49.3679 48.3361 49.3671 48.3384 49.3662C48.3393 49.3658 48.3467 49.3628 48.3555 49.3589C48.3619 49.3561 48.3829 49.3456 48.3977 49.3378C48.4772 49.2834 48.612 48.6816 48.1544 48.4042C48.1056 48.4077 48.0449 48.4187 48.0325 48.4219C48.027 48.4235 48.018 48.4261 48.0148 48.4271C48.0065 48.4297 47.9991 48.4325 47.999 48.4326C47.9953 48.4339 47.9915 48.4357 47.9884 48.4368C47.981 48.4395 47.9696 48.4426 47.9558 48.4476C47.9399 48.4535 47.9189 48.4608 47.8925 48.4705C47.8823 48.4741 47.8712 48.4786 47.8587 48.4831C47.7718 48.5137 47.6539 48.5544 47.5296 48.5953L53.1147 13.811L53.1529 13.5689L53.1705 13.6695ZM78.4159 7.16366C79.09 7.21342 79.5156 7.54031 79.7807 8.0024C80.0642 8.49664 80.1702 9.16174 80.1155 9.81359C80.0256 10.8816 79.4351 12.2743 78.6355 13.6697C77.8446 15.0497 76.8856 16.3699 76.1243 17.276C75.7734 17.6919 75.2155 18.2595 74.6649 18.5479C74.3927 18.6904 74.174 18.7366 74.0086 18.7144C73.8665 18.6953 73.6923 18.6166 73.5119 18.3385C73.1459 17.7664 73.146 16.9055 73.4033 15.92C73.6552 14.9556 74.1235 13.9902 74.5196 13.3228L74.939 12.6158L74.1208 12.5756C67.2762 12.2435 60.4244 12.7756 53.6491 13.0803L53.0741 13.1063L53.0938 13.2239L52.6095 13.2411C49.4775 13.3504 46.3735 14.0556 43.5213 15.2477L43.2026 15.3804L43.2077 15.723C43.2173 16.2632 43.5042 16.6108 43.6605 16.8282C43.8176 17.0467 43.9094 17.1993 43.9016 17.472C43.8938 17.7422 43.8199 18.079 43.6892 18.4065C43.5577 18.7357 43.3836 19.0185 43.2024 19.2008C43.0189 19.3854 42.8878 19.4134 42.8095 19.4031C42.7228 19.3915 42.5186 19.3101 42.249 18.8839L42.2481 18.8838C41.7577 18.1117 41.6489 17.1311 41.8461 16.1464C42.0188 15.2841 42.42 14.4534 42.9537 13.8156L43.1902 13.5546C43.5801 13.1583 44.1904 12.7805 44.9662 12.4304C45.7353 12.0834 46.6334 11.7784 47.569 11.5117C49.4409 10.9781 51.4198 10.6113 52.7396 10.3684L52.7407 10.3676C56.9645 9.58183 61.2518 9.12461 65.5633 8.69069C69.8458 8.2597 74.1554 7.85079 78.4159 7.16366Z" fill="#E8E4DD" stroke="#E8E4DD"/>
<path d="M203.482 17.1642C205.847 17.9361 207.654 19.2091 208.517 21.0564C209.323 22.7821 209.353 25.1096 208.077 28.1951L207.805 28.8218C204.281 36.5408 196.786 41.867 189.716 46.7677L189.579 46.8623L189.524 47.0167C188.97 48.5708 188.513 49.846 187.348 50.8945L187.346 50.896C187.066 51.1511 186.537 51.4823 186.046 51.6123C185.804 51.6765 185.618 51.6795 185.489 51.6423C185.382 51.6113 185.28 51.5444 185.199 51.3675L185.189 51.3452C185.188 51.3265 185.187 51.3041 185.188 51.2773C185.189 51.2298 185.19 51.1847 185.193 51.1274C185.195 51.0768 185.197 51.0113 185.195 50.9496L185.181 50.6289L184.415 50.3502L184.191 50.5078C180.494 53.1234 176.646 55.5495 172.798 58.0034C171.827 58.6226 171.065 59.1563 170.447 59.5861C169.821 60.0219 169.366 60.3349 168.982 60.5403C168.606 60.7414 168.347 60.8115 168.116 60.806C167.882 60.8003 167.606 60.7154 167.203 60.473L167.202 60.4727C166.86 60.264 166.677 59.9184 166.638 59.4148C166.598 58.8969 166.718 58.258 166.948 57.5762C167.408 56.2117 168.251 54.8388 168.762 54.2399C168.989 53.9748 169.454 53.6077 170.112 53.1675C170.756 52.7363 171.543 52.2625 172.374 51.7823C174.012 50.8359 175.865 49.8397 176.999 49.1583L176.998 49.1571C178.696 48.1442 180.362 47.0846 182.022 46.0313C183.684 44.9761 185.342 43.9277 187.033 42.9328L187.074 42.9084L187.11 42.8759C187.231 42.7704 187.329 42.6301 187.405 42.5054C187.485 42.3724 187.564 42.2171 187.64 42.0529C187.793 41.7235 187.949 41.3248 188.094 40.9262C188.24 40.5262 188.38 40.1159 188.5 39.7611C188.622 39.4011 188.72 39.1072 188.788 38.9239L188.789 38.9221C190.74 33.6103 192.633 28.2668 194.501 22.9513L194.502 22.9495L194.796 22.1528C194.899 21.8869 195.006 21.6191 195.112 21.3456C195.323 20.8041 195.532 20.2458 195.702 19.6711L195.85 19.1705L195.335 19.0621C192.502 18.4643 189.382 18.5775 186.594 19.2389C183.903 19.8771 182.937 20.2531 182.301 20.8785C182.237 20.9408 182.182 21.0004 182.135 21.0562C182.152 21.0237 182.168 20.9895 182.187 20.9554C182.559 20.2772 183.443 19.6377 184.506 19.0851C185.285 18.6798 186.102 18.3502 186.758 18.1024L187.353 17.8825C192.001 16.1768 198.735 15.6147 203.482 17.1642ZM202.772 22.2812C201.134 20.8797 198.894 19.9156 197.099 19.474L196.621 19.356L196.479 19.8239L191.034 37.7696L191.028 37.7911L191.022 37.812L190.678 39.4555L190.081 39.8948L191.506 40.4127L191.59 40.0082C194.925 37.566 198.461 35.1943 201.516 32.3258C203.03 30.9041 203.733 30.2419 204.104 29.7183C204.307 29.4322 204.414 29.185 204.505 28.9027C204.549 28.7689 204.59 28.6228 204.634 28.4687C204.679 28.3115 204.73 28.1359 204.796 27.9284L204.797 27.9275C205.534 25.6136 204.411 23.6837 202.772 22.2812ZM181.958 21.6822C181.969 21.7164 181.982 21.7519 182.003 21.7869C182.016 21.8093 182.031 21.8294 182.046 21.8481C182.026 21.8793 182.007 21.9022 181.992 21.9189C181.976 21.8852 181.959 21.8294 181.955 21.7435C181.954 21.7243 181.957 21.7038 181.958 21.6822Z" fill="#E8E4DD" stroke="#E8E4DD"/>
<path d="M222.57 20.1369C223.074 20.1167 223.37 20.2582 223.567 20.4497C223.779 20.6566 223.929 20.9776 224.025 21.4075C224.12 21.8343 224.151 22.32 224.162 22.8118C224.173 23.279 224.166 23.7945 224.194 24.1811L224.194 24.1841C224.284 25.3156 224.771 27.1852 225.41 28.9537C225.731 29.8442 226.097 30.7238 226.478 31.4866C226.856 32.2418 227.265 32.9122 227.681 33.3635C228.471 34.2196 229.028 34.5167 229.466 34.7283C229.681 34.8322 229.802 34.8883 229.916 34.9727C230.017 35.0472 230.124 35.1552 230.25 35.3649L230.251 35.3672C230.577 35.9053 230.716 36.6499 230.664 37.5144C230.612 38.3737 230.372 39.3128 229.986 40.2019C229.599 41.0911 229.075 41.9115 228.469 42.5407C227.86 43.172 227.193 43.5872 226.522 43.7215L226.521 43.7214C225.679 43.89 224.993 43.7193 224.399 43.3351C223.79 42.9406 223.26 42.3091 222.786 41.5372C222.313 40.7681 221.915 39.8925 221.551 39.0389C221.238 38.306 220.94 37.5709 220.652 36.9709L220.686 36.9098L220.496 36.6603L220.486 36.6479L220.034 36.9329L219.651 36.7375C219.05 37.8801 218.059 39.5604 216.845 40.9287C215.609 42.3228 214.257 43.2625 212.935 43.199L212.932 43.1995C212.097 43.1642 211.678 43.0781 211.255 42.617L211.253 42.6157L211.038 42.3641C210.078 41.1539 209.763 39.4459 209.776 37.8412L209.783 37.4995C209.886 34.8802 210.973 31.3559 212.75 28.2382C214.534 25.1097 216.95 22.4982 219.64 21.5703L219.645 21.5692C219.758 21.529 219.916 21.506 220.156 21.4671C220.346 21.4362 220.64 21.3875 220.868 21.2637L220.869 21.2648C221.06 21.1622 221.234 21.0221 221.382 20.8954C221.551 20.7512 221.664 20.644 221.819 20.5162C222.111 20.2756 222.341 20.1485 222.571 20.1381L222.57 20.1369ZM218.239 25.244C216.933 26.1246 215.667 27.5357 214.711 29.0858C213.816 30.5363 213.161 32.1574 213.02 33.6386L212.999 33.9327C212.983 34.2419 213.056 34.8438 213.231 35.3388C213.318 35.583 213.451 35.8656 213.664 36.0655C213.776 36.171 213.925 36.2669 214.111 36.3064C214.303 36.3468 214.494 36.3196 214.67 36.2433C214.939 36.1269 215.186 35.9247 215.398 35.7105C215.616 35.491 215.826 35.2305 216.017 34.9621C216.399 34.4258 216.733 33.8224 216.936 33.3719L216.937 33.3699C218.006 30.9663 218.475 28.2144 219.003 25.7639L219.006 25.7535L219.203 24.5934L218.239 25.244Z" fill="#E8E4DD" stroke="#E8E4DD"/>
<path d="M127.349 44.6302C127.477 44.6274 127.619 44.663 127.768 44.7689C127.771 44.7816 127.773 44.798 127.773 44.8013C127.774 44.8028 127.774 44.8055 127.774 44.8065C127.775 44.8078 127.775 44.8089 127.775 44.8095L127.776 44.8116C127.776 44.8133 127.776 44.8161 127.776 44.8196C127.777 44.8268 127.78 44.838 127.782 44.8531C127.793 44.9146 127.817 45.043 127.866 45.275C127.977 45.7955 127.987 46.3487 128.013 46.8231C128.037 47.257 128.073 47.6519 128.183 48.0231L128.235 48.1813L128.236 48.1834C128.623 49.2725 129.419 49.6947 130.247 49.673C131.11 49.6503 132.058 49.1396 132.652 48.2387C133.236 47.3479 133.738 46.1098 133.759 45.0344C133.769 44.5037 133.662 44.0419 133.423 43.6775C133.189 43.3204 132.798 43.0127 132.155 42.832L131.874 42.753L131.809 42.4684C131.719 42.0716 131.562 40.6897 131.459 39.4061C131.407 38.7566 131.367 38.1128 131.357 37.61C131.352 37.3601 131.353 37.1331 131.365 36.9543C131.372 36.8662 131.382 36.7765 131.398 36.6956C131.407 36.655 131.419 36.6062 131.438 36.5565C131.455 36.5121 131.489 36.4347 131.556 36.3602L131.848 36.0298C131.813 36.0273 131.778 36.0223 131.742 36.0115C131.617 35.9742 131.537 35.899 131.494 35.8439C131.452 35.7902 131.43 35.7389 131.42 35.7099C131.408 35.6788 131.402 35.6522 131.399 35.6346C131.392 35.6002 131.391 35.5719 131.39 35.5572C131.389 35.5266 131.391 35.501 131.392 35.4883C131.396 35.4379 131.406 35.3861 131.417 35.344C131.422 35.325 131.429 35.3043 131.437 35.2818C131.452 35.1955 131.472 35.0583 131.497 34.8515C131.567 34.2722 131.705 33.6397 131.788 33.1189C131.877 32.5663 131.924 32.0497 131.857 31.5389L132.772 31.187C132.952 31.4558 133.06 31.7329 133.12 32.0102C133.133 31.9253 133.142 31.8571 133.146 31.8097L133.146 31.8078C133.193 31.2019 133.113 30.4217 132.852 29.7548C132.589 29.0863 132.178 28.6052 131.605 28.4373L131.605 28.4363C130.17 28.0195 128.537 28.7615 126.957 30.0465C125.404 31.3096 124.043 32.9848 123.213 34.1287C122.007 35.7926 120.445 38.4037 119.497 41.0665C118.538 43.7626 118.266 46.348 119.393 48.1026C119.822 48.7695 120.238 49.1306 120.683 49.2865C121.126 49.4415 121.686 49.4241 122.471 49.1471C123.307 48.8505 124.139 48.1865 124.9 47.3619C125.655 46.5442 126.305 45.6078 126.787 44.8251L126.989 44.4957L127.359 44.6011M127.349 44.6302L127.359 44.6011M127.349 44.6302C127.118 44.6353 126.933 44.7682 126.842 44.8573M127.349 44.6302L127.359 44.6011M127.359 44.6011C127.296 44.5832 127.204 44.5727 127.101 44.6038C126.996 44.6353 126.921 44.6973 126.874 44.7536C126.848 44.7847 126.83 44.8153 126.816 44.8425M126.842 44.8573C126.817 44.8811 126.8 44.9024 126.79 44.9165C126.794 44.8988 126.802 44.8727 126.816 44.8425M126.842 44.8573L126.816 44.8425M126.842 44.8573L126.816 44.8425M128.728 30.855L127.587 31.592L127.556 31.6109L127.529 31.6344C125.864 33.0738 124.663 34.808 123.621 36.6279C123.114 37.5136 122.456 38.6337 122.037 39.6885C121.827 40.217 121.665 40.7564 121.619 41.2632C121.573 41.7699 121.639 42.287 121.934 42.7215L121.934 42.7225C122.05 42.8961 122.206 43.0424 122.41 43.121C122.617 43.2003 122.818 43.19 122.985 43.1474C123.281 43.0723 123.564 42.8667 123.733 42.7509L123.732 42.7498C125.419 41.6023 126.377 39.4142 127.139 37.2908C127.333 36.751 127.517 36.2047 127.698 35.6717C127.879 35.1369 128.057 34.6151 128.24 34.1152C128.608 33.1102 128.985 32.2244 129.428 31.5389L129.843 30.8965L128.891 30.7497L128.728 30.855Z" fill="#E8E4DD" stroke="#E8E4DD"/>
<path d="M248.828 16.5326C248.817 16.6046 248.803 16.6857 248.782 16.7745C248.674 17.2384 248.492 17.6979 248.418 17.9256L248.417 17.9295C248.15 18.7851 247.815 19.6471 247.494 20.5238C247.187 21.3565 246.678 22.4382 246.182 23.5483C245.698 24.6323 245.221 25.7547 245.029 26.6003C244.938 26.9997 244.89 27.2752 244.876 27.4668C244.868 27.5612 244.867 27.6607 244.883 27.7554C244.896 27.8334 244.931 27.9483 245.02 28.0533C244.861 29.3892 244.311 30.5547 243.62 31.7073C243.255 32.3162 242.863 32.9044 242.466 33.5202C242.074 34.1292 241.683 34.757 241.348 35.4157C240.416 37.2363 239.489 40.0359 238.731 42.4231L238.035 44.6218C237.109 47.5083 236.229 50.5711 235.692 53.589L235.59 54.1888C235.513 54.6386 235.463 55.0666 235.419 55.4725C235.374 55.8824 235.334 56.2649 235.276 56.6449C235.162 57.3957 234.98 58.1149 234.568 58.8871C234.141 59.686 233.478 60.4963 232.841 60.8449C232.533 61.0132 232.284 61.0465 232.083 60.9878C231.881 60.9292 231.618 60.7469 231.354 60.2531C231.121 59.8165 231.044 59.2552 231.1 58.5838C231.156 57.9133 231.343 57.1703 231.599 56.4031C231.853 55.6379 232.169 54.8672 232.477 54.1407C232.781 53.423 233.082 52.733 233.29 52.1626C233.626 51.257 233.935 50.3454 234.244 49.4435C234.476 48.7641 234.708 48.0892 234.953 47.4198L235.204 46.752C236.318 43.8403 237.529 40.9623 238.764 38.0821L238.788 38.0264L238.92 37.2466L238.211 37.3931C237.568 37.5258 237.128 37.3106 236.76 36.9077C236.365 36.4747 236.08 35.8483 235.822 35.2227L235.821 35.2207L235.57 34.5882C235.01 33.095 234.616 31.4863 234.279 29.8405C233.901 27.9936 233.581 26.0169 233.189 24.2278L232.944 23.1072L232.287 24.064L231.519 25.1796C231.514 25.1435 231.509 25.103 231.506 25.058C231.495 24.9071 231.494 24.7695 231.489 24.6108L231.489 24.6089L231.466 23.9326C231.449 23.2054 231.448 22.3421 231.5 21.4954C231.57 20.3474 231.734 19.3045 232.04 18.6642C232.286 18.151 232.463 18.0404 232.506 18.0247C232.511 18.0228 232.512 18.0209 232.527 18.0259C232.552 18.0342 232.602 18.0602 232.676 18.13C232.83 18.2743 232.996 18.5212 233.162 18.8362C233.324 19.1433 233.468 19.4783 233.589 19.7714L233.589 19.7734C234.159 21.1374 234.599 22.529 235.089 23.9576C235.577 25.3763 236.11 26.8161 236.856 28.2204C237.039 28.5669 237.385 29.2487 237.818 29.825C238.035 30.1135 238.292 30.4008 238.582 30.6096C238.871 30.8176 239.241 30.9816 239.662 30.9282C240.087 30.8743 240.455 30.5853 240.735 30.3062C241.031 30.0106 241.316 29.6365 241.57 29.27C241.825 28.9019 242.063 28.5201 242.261 28.2089C242.472 27.878 242.616 27.6595 242.704 27.5609L242.706 27.5591C242.869 27.3737 243.142 27.1457 243.447 26.8938C243.716 26.6711 244.05 26.3988 244.224 26.1748C244.284 26.097 244.359 25.9678 244.429 25.8419C244.507 25.7026 244.602 25.5253 244.707 25.3236C244.918 24.9197 245.174 24.4085 245.428 23.8906C245.683 23.3725 245.935 22.8447 246.137 22.4072C246.333 21.9838 246.496 21.6115 246.556 21.4245L246.557 21.4207C246.674 21.0461 246.689 20.7413 246.716 20.5166C246.743 20.2964 246.785 20.0672 246.946 19.7192C247.117 19.3487 247.44 18.8436 247.811 18.2401C248.133 17.7173 248.482 17.1334 248.735 16.5765L248.828 16.5326Z" fill="#E8E4DD" stroke="#E8E4DD"/>
<path d="M150.668 25.1563C150.888 25.1514 151.122 25.2197 151.369 25.4511L151.515 25.6267C151.848 26.0287 152.094 26.6094 152.267 27.3332C152.438 28.0526 152.529 28.8774 152.576 29.7362C152.623 30.594 152.626 31.4699 152.627 32.2931C152.628 33.1081 152.627 33.8829 152.669 34.5107C152.698 34.9536 152.761 35.6955 152.862 36.4235C152.959 37.1271 153.101 37.8981 153.312 38.3463C153.394 38.5205 153.462 38.6579 153.517 38.7385C153.53 38.7571 153.565 38.8086 153.622 38.8564C153.649 38.8795 153.713 38.9307 153.811 38.9588C153.928 38.9924 154.088 38.9888 154.234 38.8925C154.357 38.8111 154.409 38.7025 154.429 38.6538C154.45 38.5999 154.459 38.5538 154.463 38.5296C154.466 38.5067 154.465 38.4849 154.465 38.4668C154.556 38.409 154.644 38.3465 154.726 38.2838C154.895 38.1547 155.07 38.0038 155.235 37.8632C155.498 37.6381 155.732 37.4424 155.94 37.306L156.139 37.1904C156.596 36.968 156.871 36.9799 157.029 37.0363C157.189 37.0933 157.341 37.2352 157.463 37.5052C157.717 38.0666 157.733 38.9492 157.586 39.6049C157.378 40.5258 156.747 41.6792 155.918 42.7671C155.092 43.8505 154.115 44.8104 153.27 45.3595C152.184 46.0668 151.537 46.0627 151.143 45.8684C150.71 45.6543 150.357 45.1098 150.107 44.2544C149.614 42.5638 149.667 40.1949 149.676 38.9536C149.682 38.0341 149.788 36.9044 149.852 35.7174C149.914 34.5628 149.935 33.3627 149.743 32.4176C149.69 32.1589 149.655 31.977 149.634 31.8544C149.627 31.792 149.622 31.7363 149.615 31.6944C149.611 31.6676 149.606 31.6416 149.601 31.6192C149.599 31.6082 149.596 31.5948 149.593 31.5813C149.591 31.5746 149.589 31.5651 149.585 31.5545C149.583 31.5465 149.577 31.5253 149.566 31.5001C149.561 31.4886 149.549 31.4623 149.53 31.4314C149.52 31.4157 149.503 31.3895 149.477 31.3609C149.454 31.3355 149.404 31.2844 149.323 31.2463C149.231 31.2032 149.094 31.1753 148.944 31.2274C148.806 31.2752 148.727 31.367 148.69 31.4204C148.653 31.4747 148.634 31.5242 148.626 31.5498C148.616 31.5782 148.612 31.6022 148.609 31.6174C148.6 31.668 148.6 31.7097 148.6 31.7158C148.6 31.7306 148.602 31.7431 148.602 31.7507C148.604 31.7786 148.609 31.81 148.612 31.8363C148.618 31.8754 148.628 31.9294 148.641 32.0017C148.642 32.0174 148.641 32.0331 148.642 32.0483L148.621 32.0826C147.85 33.3108 147.174 34.5825 146.517 35.8436C145.858 37.11 145.22 38.3617 144.515 39.5768L144.514 39.5776C144.033 40.4121 143.16 41.9186 142.157 43.2561C141.656 43.9254 141.132 44.5375 140.621 44.9982C140.164 45.4097 139.759 45.6627 139.419 45.7603L139.276 45.7927C138.705 45.8863 138.456 45.7365 138.318 45.564C138.143 45.3453 138.04 44.9605 138.027 44.4136C138.015 43.8827 138.089 43.2836 138.182 42.7144C138.247 42.3122 138.329 41.8897 138.386 41.5563L138.432 41.2561C138.839 38.2093 139.56 34.893 139.449 31.6952C139.442 31.4565 139.414 30.9586 139.372 30.476C139.351 30.2336 139.326 29.9893 139.296 29.7807C139.269 29.5894 139.232 29.3758 139.175 29.2295C139.123 29.0959 139.037 28.9436 138.881 28.8403C138.85 28.82 138.818 28.8041 138.788 28.7904C138.834 28.6199 138.882 28.4912 138.927 28.3979C139.002 28.5167 139.084 28.6941 139.163 28.9362L139.243 29.2043C139.598 30.5563 139.641 32.0166 139.614 33.5356C139.588 35.0317 139.492 36.6129 139.595 38.1011L139.595 38.1021C139.606 38.2655 139.609 38.6082 139.643 38.882C139.677 39.1618 139.756 39.5395 140.011 39.82L140.48 40.3369L140.823 39.7189C141.925 37.7312 142.961 35.5635 144.04 33.4996C145.128 31.4173 146.28 29.4019 147.65 27.6284L147.651 27.6275C148.112 27.0278 148.847 26.1137 149.63 25.5723C150.021 25.3025 150.371 25.1628 150.668 25.1563Z" fill="#E8E4DD" stroke="#E8E4DD"/>
<path d="M84.8005 28.2521C85.1816 28.3133 85.554 28.6359 85.8983 29.2749C86.5841 30.5479 86.8913 32.5734 87.0655 33.8138C87.3403 35.7599 87.5088 37.7188 87.6978 39.6988C87.8861 41.6731 88.0944 43.6637 88.4482 45.6456C88.5261 46.0882 88.6674 46.5273 88.7801 46.9149C88.8678 47.217 88.943 47.5006 88.9851 47.7824L89.0153 48.0646C89.0587 48.7672 88.8541 49.772 88.4544 50.7277C88.0512 51.6915 87.4924 52.5024 86.9076 52.892L86.7558 52.9921C86.4306 53.1736 86.2179 53.1778 86.0854 53.1427C85.9211 53.099 85.7464 52.9607 85.5827 52.6799C85.2482 52.1059 85.1141 51.1907 85.1598 50.5607L85.1599 50.5597L85.2491 49.2377C85.4413 46.1807 85.5144 43.2889 85.2813 40.1395C85.016 36.5537 84.8203 35.422 83.9094 33.2285L83.5558 32.3787L83.0315 33.1495C81.8294 34.9169 80.7426 36.7532 79.732 38.6181L79.7318 38.6191C78.8482 40.2572 78.0025 42.1672 77.1414 44.0014C76.2735 45.8501 75.3862 47.6309 74.403 49.0714C73.902 49.8054 73.5345 50.282 73.2579 50.5685C73.1199 50.7115 73.0208 50.7903 72.9549 50.8301L72.9539 50.8299C72.9339 50.8037 72.9056 50.7626 72.8703 50.6985C72.7517 50.4832 72.6372 50.1808 72.4661 49.7618L72.4638 49.7575L72.4352 49.6523C72.4258 49.6036 72.4174 49.5403 72.4113 49.4609C72.3997 49.3095 72.3991 49.1307 72.407 48.9386C72.415 48.7458 72.4305 48.5498 72.4478 48.3669L72.5 47.8741C72.8207 44.994 73.346 42.1809 73.7508 39.263L73.7511 39.2611L73.7963 38.8788C73.8376 38.4921 73.8668 38.0925 73.8946 37.6955C73.9321 37.1612 73.9675 36.6293 74.0284 36.1057C74.1508 35.0521 74.3699 34.0979 74.8532 33.3411C75.0363 33.0558 75.1733 32.909 75.2618 32.8429C75.2668 32.8392 75.2713 32.836 75.2754 32.8331C75.2949 32.8528 75.3236 32.8862 75.3601 32.941C75.4464 33.0711 75.5411 33.268 75.6427 33.5389C75.8503 34.0927 76.0051 34.5982 76.1077 34.9917C76.1589 35.1883 76.1968 35.3542 76.2213 35.4825C76.2335 35.5465 76.2417 35.5992 76.2471 35.6396C76.2498 35.6597 76.2517 35.676 76.2527 35.6879L76.2538 35.7049L76.2546 35.7178C76.2661 36.0144 76.1683 36.5656 75.9567 36.9622C75.8516 37.159 75.7477 37.2629 75.6707 37.3044C75.6229 37.3302 75.5519 37.3537 75.4036 37.285L74.7646 36.9889L74.6887 37.6915C74.5322 39.1384 74.3462 40.6364 74.2775 42.1175C74.2608 42.4769 74.2492 42.6885 74.2457 42.7933C74.2449 42.8196 74.2446 42.846 74.2447 42.8692C74.2448 42.8805 74.2452 42.898 74.2465 42.9169C74.2468 42.9217 74.2499 42.9802 74.272 43.0463C74.2765 43.0596 74.3178 43.1979 74.4594 43.2955C74.5503 43.3581 74.673 43.3971 74.8087 43.379C74.931 43.3626 75.0169 43.3063 75.062 43.2699C75.1108 43.2305 75.1428 43.1867 75.1636 43.1561L75.2017 43.1708L75.3952 42.7264C76.5461 40.0853 77.7377 37.4342 79.1143 34.9069L79.7161 33.8319C80.6058 32.2887 81.7315 30.3863 82.9424 29.2125L82.9426 29.2115C83.829 28.3517 84.4255 28.1918 84.8005 28.2521Z" fill="#E8E4DD" stroke="#E8E4DD"/>
<path d="M164.829 10.3723C164.614 12.5252 164.456 14.6803 164.303 16.8257L164.292 16.988L164.378 17.1238C164.476 17.2784 164.622 17.3281 164.675 17.3433C164.739 17.3621 164.797 17.3664 164.832 17.3676C164.903 17.3701 164.976 17.3633 165.035 17.3554C165.158 17.3389 165.313 17.3065 165.479 17.2678C165.814 17.1891 166.249 17.0698 166.683 16.9436C167.544 16.6934 168.456 16.4002 168.649 16.3259C169.028 16.1895 169.475 15.9697 169.892 15.7764C170.331 15.5722 170.761 15.3862 171.158 15.279C171.561 15.1704 171.864 15.1622 172.083 15.2409C172.274 15.3095 172.48 15.4729 172.632 15.9085L172.633 15.9096C172.911 16.6923 172.802 17.8994 172.327 18.9883C171.877 20.0157 171.168 20.7902 170.341 21.0256L168.001 19.8717L167.933 19.8384L165.183 19.4145L164.991 18.8316L164.411 19.5217L164.226 19.7402L164.11 19.8793L164.108 20.0598C164.089 21.9453 163.95 23.8336 163.811 25.7394C163.672 27.6398 163.534 29.558 163.521 31.4765C163.497 35.2521 163.533 36.3012 164.342 37.8421L164.344 37.8443C164.348 37.8515 164.352 37.8604 164.36 37.8765C164.367 37.8901 164.378 37.9137 164.39 37.9363C164.411 37.9769 164.457 38.0621 164.536 38.1386C164.628 38.2281 164.762 38.3021 164.931 38.3112C165.082 38.3193 165.212 38.2717 165.304 38.2255L165.334 38.2114L165.361 38.1928C165.996 37.7669 166.587 37.2869 167.157 36.8216C167.731 36.3519 168.283 35.8987 168.865 35.4953C169.488 35.0662 169.828 35.0251 169.977 35.0551C170.08 35.076 170.205 35.1587 170.297 35.4621C170.389 35.7663 170.409 36.1935 170.36 36.6673C170.312 37.1347 170.198 37.6076 170.056 37.9858C169.896 38.4055 169.526 39.0315 169.003 39.7747C168.486 40.5081 167.844 41.3254 167.163 42.1202C166.483 42.9149 165.77 43.682 165.117 44.3162C164.457 44.9572 163.881 45.4383 163.471 45.6847C162.678 46.161 161.944 46.1367 161.43 45.8147C160.911 45.4893 160.495 44.7851 160.519 43.6626L160.519 43.6617C160.627 38.0794 161.802 31.6417 162.612 26.0101L162.612 26.0091L162.841 24.5149C163.084 23.0086 163.355 21.4709 163.527 19.9595L163.595 19.3643L162.996 19.4133L159.02 19.735L158.824 19.7512L158.689 19.8954C158.599 19.9917 158.54 20.0083 158.528 20.0108C158.521 20.0121 158.523 20.0117 158.52 20.0096C158.502 19.998 158.412 19.9034 158.446 19.6801L158.446 19.6751L158.483 19.504C158.529 19.3469 158.6 19.2288 158.687 19.1333C158.808 18.9997 158.98 18.8866 159.212 18.7875C159.445 18.6878 159.716 18.6111 160.019 18.5375C160.306 18.4679 160.652 18.3946 160.955 18.3122C161.53 18.1557 162.086 18.0473 162.544 17.9476C162.766 17.8994 162.977 17.8506 163.142 17.7977C163.224 17.7716 163.314 17.739 163.395 17.6964C163.461 17.6621 163.602 17.582 163.691 17.4259L163.736 17.3459L163.75 17.2562C163.932 16.1227 164.109 14.9881 164.285 13.854L164.818 10.4487C164.823 10.4233 164.825 10.3977 164.829 10.3723Z" fill="#E8E4DD" stroke="#E8E4DD"/>
<path d="M113.052 11.8279C113.058 11.9096 113.062 12.0056 113.062 12.1159C113.06 12.5276 113.017 13.065 112.955 13.6319C112.894 14.1955 112.817 14.7739 112.75 15.2649C112.684 15.7457 112.626 16.1639 112.608 16.3792L112.607 16.3821C112.453 18.3559 112.37 20.3831 112.283 22.3538L112.283 22.3558C112.199 24.3803 112.16 26.4104 112.145 28.4313L112.14 29.052L112.75 28.9139C114.571 28.5011 116.563 28.0759 118.363 27.4446C119.274 27.1252 119.991 26.7669 120.54 26.5185C121.121 26.2562 121.463 26.1446 121.745 26.1668L121.749 26.1674C122.015 26.1864 122.162 26.293 122.264 26.4483C122.382 26.6278 122.457 26.9039 122.476 27.2635C122.512 27.9825 122.313 28.826 122.14 29.2745L122.139 29.2765C121.85 30.0345 121.544 30.5121 121.232 30.8191C120.929 31.118 120.595 31.2789 120.202 31.3648C119.794 31.454 119.323 31.462 118.743 31.4452C118.181 31.429 117.511 31.3897 116.786 31.4044L116.785 31.4042C115.35 31.4351 113.811 31.7347 112.476 31.8889L112.004 31.9426L112.026 32.4143C112.213 36.5613 112.104 41.0799 113.246 45.2435L113.245 45.2445C113.389 45.7677 113.585 46.2098 113.771 46.6079C113.962 47.0152 114.132 47.3571 114.262 47.7298C114.304 47.8511 114.333 48.0625 114.327 48.3584C114.321 48.6458 114.283 48.9802 114.216 49.3263C114.08 50.0297 113.838 50.7179 113.561 51.138L113.561 51.139C112.953 52.0637 112.388 52.2373 112.084 52.17C111.783 52.1029 111.355 51.7122 111.234 50.6202C110.978 48.3245 110.922 43.565 110.913 40.3531C110.904 37.1648 110.996 35.3745 111.139 32.8772L111.147 32.7234L111.067 32.5926L111.027 32.536C110.929 32.4158 110.804 32.3763 110.758 32.364C110.691 32.3466 110.633 32.3447 110.6 32.3447C110.533 32.3447 110.466 32.3547 110.415 32.3636C110.307 32.3823 110.173 32.4159 110.033 32.4548C109.748 32.5339 109.382 32.6518 109.02 32.7758C108.656 32.9003 108.288 33.0332 107.998 33.1459C107.853 33.202 107.724 33.255 107.623 33.2995C107.573 33.3217 107.524 33.3434 107.482 33.3648C107.454 33.379 107.384 33.4149 107.323 33.4667C107.231 33.5447 107.172 33.6424 107.142 33.6947C107.104 33.7591 107.069 33.8306 107.038 33.8999C106.975 34.038 106.907 34.2084 106.843 34.3678C106.776 34.5335 106.711 34.6941 106.647 34.8345C106.579 34.9814 106.527 35.0734 106.494 35.1182L106.488 35.1263C106.3 35.384 106.126 35.4842 106.002 35.5176C105.881 35.55 105.757 35.5336 105.632 35.4625C105.366 35.3113 105.109 34.9042 105.136 34.3537L105.135 34.3516L105.153 34.1341C105.285 33.0587 106.033 32.1315 107.113 31.3458C108.259 30.5131 109.695 29.904 110.877 29.5064L111.194 29.3993L111.223 29.0687C111.428 26.6753 111.492 24.1982 111.659 21.8457L111.66 21.8458C111.726 20.9396 111.882 19.8691 112.022 18.7697C112.16 17.6878 112.279 16.5794 112.252 15.6566C112.244 15.344 112.096 15.1454 111.988 15.0279C111.969 15.0069 111.949 14.986 111.934 14.9712C111.935 14.9368 111.936 14.8924 111.941 14.8379C111.953 14.6997 111.978 14.5254 112.01 14.3407C112.073 13.9699 112.156 13.5938 112.196 13.4427C112.228 13.3262 112.463 12.7245 112.769 12.222C112.871 12.0549 112.969 11.9228 113.052 11.8279Z" fill="#E8E4DD" stroke="#E8E4DD"/>
<path d="M102.169 27.9996C102.928 28.0213 103.538 28.2639 103.931 28.7288C104.325 29.1937 104.576 29.9669 104.431 31.2056C104.411 31.3758 104.239 32.2197 103.983 32.8822C103.902 33.0897 103.824 33.2429 103.761 33.3479C103.607 33.0509 103.645 32.6741 103.775 32.1676C103.839 31.9202 103.937 31.597 103.983 31.334C104.027 31.0757 104.058 30.6991 103.838 30.3821L103.138 29.3711L103.045 29.916C102.998 29.901 102.952 29.8856 102.906 29.8728C102.668 29.807 102.416 29.7618 102.21 29.7399L102.022 29.7256C101.265 29.6964 100.425 30.0361 99.7231 30.4571C99.01 30.8847 98.3485 31.4503 97.9503 31.976L97.8124 32.1583L97.8589 32.3798C98.3033 34.5301 99.497 36.5874 100.468 38.5449C101.46 40.5442 102.24 42.4696 102.067 44.5108C101.95 45.8928 101.491 47.4728 100.736 48.8938C99.98 50.3169 98.9473 51.544 97.7106 52.2687C97.1737 52.5827 96.3457 52.8868 95.5334 52.9853C94.754 53.0798 94.1092 52.9729 93.7133 52.6513L93.6375 52.5843C92.6842 51.6603 92.3931 50.0243 92.7229 48.3768C93.0526 46.7303 93.9635 45.2703 95.16 44.688L95.1608 44.6891C95.6889 44.4323 95.9238 44.4733 96.0278 44.5184C96.1579 44.575 96.2804 44.7151 96.448 45.0179C96.587 45.2693 96.7821 45.6955 97.042 45.9977C97.3437 46.3484 97.7752 46.5996 98.3966 46.5414C98.8259 46.5012 99.1571 46.4487 99.3793 46.354C99.4907 46.3065 99.6581 46.2145 99.7583 46.0301C99.8728 45.8192 99.8339 45.6157 99.7853 45.4929C99.7417 45.3827 99.6735 45.2915 99.6333 45.2392C99.6104 45.2095 99.5857 45.1797 99.5655 45.1547C99.544 45.1281 99.5255 45.1047 99.5076 45.0815C99.468 45.0302 99.4447 44.9944 99.4315 44.97L99.4149 44.9279C99.2429 43.6189 98.7524 42.3233 98.2105 41.067C97.6586 39.7873 97.0642 38.5684 96.619 37.3222C96.1778 36.0872 95.9087 34.8893 96.001 33.7058C96.0923 32.5351 96.5392 31.3433 97.5898 30.1184L97.591 30.1176C98.6823 28.8414 100.621 27.9555 102.169 27.9996Z" fill="#E8E4DD" stroke="#E8E4DD"/>
</svg>
