<svg width="570" height="506" viewBox="0 0 570 506" fill="none" xmlns="http://www.w3.org/2000/svg">
<path d="M562.81 338.162C563.621 338.297 564.51 338.424 565.832 339.078C566.485 339.42 567.33 339.95 568.102 340.978C568.885 341.984 569.326 343.521 569.267 344.669C569.116 347.008 568.288 347.944 567.731 348.762C567.127 349.548 566.551 350.089 565.968 350.579C553.813 357.629 545.98 360.768 535.234 366.125C528.909 369.104 522.067 372.06 514.036 374.787C490.458 382.789 486.099 381.71 459.591 392.141C451.365 395.384 443.054 398.438 435.222 401.285C417.876 407.524 403.16 413.898 396.388 418.873C390.456 423.151 388.152 424.17 382.911 427.46C382.653 427.58 382.419 427.705 382.249 427.799C382.078 427.888 381.979 427.97 382.02 427.825C382.038 427.749 382.096 427.601 382.135 427.338C382.175 427.08 382.171 426.695 382.074 426.364C381.863 425.667 381.544 425.527 381.603 425.603C381.648 426.042 385.296 427.004 388.958 427.211C397.81 427.797 405.142 427.906 412.171 428.299C418.938 428.645 425.464 429.115 433.182 429.723C448.055 430.944 492.194 431.967 511.824 431.393C512.984 431.361 513.953 431.321 514.943 431.277C524.809 431.234 534.827 430.1 545.39 434.814C545.475 434.864 545.7 435.041 545.772 435.108C550.81 440.773 554.243 446.145 557.985 449.79L557.851 449.684C558.116 449.881 558.383 450.067 558.653 450.242C561.659 452.155 564.505 453.08 566.601 453.931C567.499 454.281 567.875 454.591 567.822 454.782C567.822 454.782 567.822 454.782 567.822 454.783C567.756 455.019 567.029 455.074 565.827 454.766C563.28 454.081 560.063 453.343 556.725 451.368C556.701 451.351 556.634 451.299 556.613 451.28C552.946 448.281 549.092 444.225 544.828 440.255C544.071 439.567 543.35 438.936 542.657 438.371L543.033 438.66C531.898 436.359 525.696 436.708 511.732 436.13C508.174 436.072 504.024 436.073 498.979 436.173C472.335 436.71 456.312 438.453 424.911 436.836C420.084 436.577 415.831 436.445 411.929 436.381C405.74 436.276 400.448 436.362 395.033 436.33C392.342 436.309 389.634 436.267 386.712 436.06C385.239 435.95 383.728 435.808 382.033 435.511C380.332 435.11 378.462 435.088 375.46 432.845C374.663 432.17 373.618 431.196 372.915 429.334C372.171 427.473 372.482 425.022 373.149 423.666C374.512 420.911 375.877 420.109 377.043 419.176C382.463 414.291 392.14 407.946 404.117 403.157C415.73 398.419 424.391 395.249 431.789 392.232C450.85 384.558 460.524 378.16 490.289 366.673C502.817 361.839 516.457 356.938 530.011 352.14C539.9 348.566 552.917 344.298 558.384 341.502C558.438 341.481 558.437 341.458 558.237 341.753C558.145 342.079 557.221 342.678 557.571 345.596C557.8 347.008 558.781 348.388 559.505 348.954C560.248 349.567 560.723 349.724 561.001 349.827C561.549 349.995 561.505 349.918 561.383 349.907C544.481 348.293 528.682 350.842 518.049 352.768C512.281 353.872 506.078 355.21 499.48 356.754C476.683 362.07 449.695 369.018 421.483 376.366C403.263 381.099 383.147 387.274 362.616 393.873C342.233 400.421 321.418 407.359 301.622 413.454C261.888 425.563 206.199 444.409 180.746 453.751C176.9 455.138 173.499 456.385 170.462 457.518C153.042 464.127 145.519 467.159 125.808 477.284C115.128 482.834 101.306 490.079 88.6102 497.546C85.447 499.375 82.3424 501.132 79.343 502.846C71.8825 507.398 72.7805 505.449 79.9925 500.11C82.4267 498.332 84.7944 496.699 87.072 495.157C94.5659 490.045 101.099 486.302 105.195 483.063C115.951 474.677 120.743 471.297 136.644 465.26C152.297 459.453 158.505 453.935 167.529 450.404C167.701 450.338 167.876 450.271 168.051 450.206C177.333 446.887 177.645 448.021 224.046 429.293C270.562 410.822 296.532 401.942 314.397 395.631C324.499 392.092 341.045 387.087 358.857 381.826C372.616 377.756 387.113 373.555 399.975 369.598C423.585 362.214 467.327 350.86 496.654 344.11C504.052 342.368 510.527 340.95 515.544 339.857C540.653 334.932 541.447 336.382 562.212 338.087C562.412 338.107 562.599 338.131 562.81 338.162Z" fill="#E8E4DD"/>
<path d="M149.585 83.5724C124.682 86.0168 100.312 91.3799 75.8605 95.9769C77.2531 99.6982 81.226 103.711 79.5467 107.834C77.8674 111.957 77.8265 108.71 77.8674 112.212C78.277 137.897 80.1611 163.472 80.3249 189.193L82.3728 216.738L118.825 200.503C123.699 197.986 128.819 195.833 133.693 193.316C138.485 190.835 145.039 184.778 149.954 190.652C154.869 196.526 152.083 207.435 147.824 212.834C143.359 218.526 138.362 216.154 131.768 216.775C128.655 217.067 123.945 218.27 120.791 219.037C108.709 221.919 97.0768 226.552 85.4856 230.638C85.0351 230.821 84.8713 231.04 84.8713 231.478C84.7484 233.046 86.141 235.819 86.1 237.716C86.059 240.854 82.4138 250.741 77.4988 248.26C73.3211 246.144 74.0993 239.832 73.3621 236.257C72.6248 232.682 73.6488 235.6 72.7886 235.71C52.924 244.174 32.0763 252.383 13.7681 263.437C12.5803 264.167 9.91804 265.444 9.09888 266.21C7.25576 267.888 6.47756 271.062 2.50463 269.822C-0.0757282 267.086 0.743433 263.255 2.50463 260.336C5.57648 255.156 23.5161 246.108 29.8237 242.715C43.2989 235.527 57.8799 229.434 71.1913 222.284C84.5026 215.133 73.1982 221.445 73.403 220.569L72.1743 97.0714C61.1156 99.0415 50.5075 102.982 41.0871 108.418C41.5786 110.862 44.2409 111.081 44.6914 114.073C45.3877 118.706 41.9882 127.025 36.3769 121.114C31.0934 115.569 32.0354 106.156 36.3769 100.391C41.8244 93.1677 60.665 86.9654 69.9216 83.9373C99.739 74.1231 131.236 68.687 161.299 59.5296C167.729 58.9459 170.801 64.236 171.252 69.1978C171.989 77.3337 165.641 90.5408 161.135 97.6552C159.046 100.939 153.845 107.506 149.38 102.909C144.957 98.3119 147.455 88.7166 149.585 83.5724Z" fill="#E8E4DD"/>
<path d="M187.383 365.714C187.074 365.247 187.051 364.274 186.927 363.73L186.125 363.581C174.294 374.438 161.802 384.724 149.381 395.062C136.96 405.399 135.693 409.376 128.665 406.698C120.452 403.541 126.397 387.274 129.617 382.279C132.838 377.284 149.347 366.1 156.737 360.274C167.752 351.652 178.194 342.439 189.281 333.868C190.759 332.203 191.969 323.11 192.533 320.345C196.327 301.296 199.889 282.166 203.386 263.136C204.089 259.242 205.202 255.385 205.705 251.454C195.37 250.923 184.41 252.884 174.944 256.501C165.479 260.118 162.756 261.739 161.203 263.725C159.65 265.711 161.549 264.571 161.512 265.086C161.003 270.47 155.333 268.602 157.591 262.536C159.849 256.469 170.522 250.914 175.285 248.44C207.449 231.69 273.249 226.187 258.843 276.777C250.677 305.378 226.366 327.716 203.834 347.998C202.794 353.507 201.871 358.517 197.956 363.085C195.933 365.469 190.175 369.51 187.463 365.729L187.383 365.714ZM203.313 322.189C214.135 311.891 225.58 301.97 234.95 290.547C244.32 279.124 242.834 280.824 243.767 274.699C245.977 260.089 225.421 253.011 212.288 251.925L203.615 315.723L203.353 322.196L203.313 322.189Z" fill="#E8E4DD"/>
<path d="M306.618 297.586C303.628 306.087 296.174 323.088 284.705 324.219C281.552 324.547 279.34 324.547 276.923 322.76C271.189 318.564 268.65 311.377 267.749 305.029C265.168 286.458 275.08 253.732 294.617 244.028C295.764 243.444 297.73 243.152 298.631 242.495C300.474 241.182 301.949 238.008 304.857 237.461C313.786 235.819 314.072 246.618 315.383 251.616C317.308 258.767 326.687 275.367 333.036 280.037C339.384 284.707 340.982 282.555 343.849 285.729C351.18 293.755 345.979 314.916 334.715 318.783C321.035 323.489 312.68 305.284 306.577 297.549L306.618 297.586ZM293.921 260.008C286.016 266.94 279.586 280.913 280.855 290.8C281.06 292.442 283.067 297.987 285.524 296.528C287.982 295.068 290.317 289.669 291.177 286.604C293.511 278.104 293.511 268.764 293.921 260.044V260.008Z" fill="#E8E4DD"/>
<path d="M373.83 133.482C373.093 134.577 377.639 150.192 378.663 152.527C389.927 153.804 388.575 165.989 385.258 173.031C381.612 180.729 370.84 183.574 365.925 175.293C364.041 172.155 364 168.507 362.69 165.405C361.379 162.304 362.526 164.53 361.912 164.457C359.331 170.404 354.58 178.977 348.109 182.261C342.334 185.18 338.279 184.341 334.06 179.963C322.51 167.959 332.217 141.363 339.016 128.593C343.685 119.837 354.949 102.362 367.81 103.93C373.708 104.66 376.616 111.519 377.066 116.116C377.312 118.487 376.37 131.512 375.018 132.935C373.667 134.358 373.912 133.373 373.83 133.519V133.482ZM373.38 128.666C373.503 124.398 375.714 119.108 372.151 115.532C373.421 119.399 372.765 123.413 372.97 127.389C373.175 131.366 372.643 128.739 373.38 128.666ZM359.864 116.627L356.177 119.728C351.222 125.273 348.027 131.585 345.405 138.225C342.784 144.865 338.852 154.278 342.661 158.036C344.054 159.422 345.324 158.255 346.593 157.124C356.423 148.441 354.826 127.608 359.905 116.627H359.864Z" fill="#E8E4DD"/>
<path d="M373.216 291.165C367.277 293.245 363.631 288.283 361.01 284.343C353.72 273.471 349.624 259.935 344.545 248.114L342.087 253.04C339.384 255.265 338.934 251.872 338.524 250.012C337.254 244.393 335.247 234.068 336.886 228.705C339.302 220.861 344.012 227.465 346.511 231.222C352.409 240.015 356.505 249.537 363.468 258.074C365.27 260.3 369.816 266.137 373.338 265.189C376.861 264.24 379.81 255.01 381.243 252.894C382.39 251.179 385.093 248.771 385.831 247.494C386.568 246.217 390.828 232.864 391.155 230.712C391.483 228.45 390.705 227.465 391.565 224.509C392.425 221.554 395.251 216.41 396.275 212.287L398.855 210.682C401.026 210.901 399.593 217.03 399.388 218.344C398.937 221.445 398.241 224.619 397.627 227.72C396.398 233.849 392.793 243.882 392.466 249.428C392.138 254.973 393.162 252.055 393.285 253.441C394.186 263.985 387.592 272.413 384.479 281.716C381.53 290.436 379.646 305.029 378.212 314.442C376.533 325.387 375.182 336.916 375.263 347.97C375.263 354.027 376.574 358.843 374.362 365.008C372.151 371.174 366.13 378.872 360.355 371.831C354.743 364.972 360.478 349.941 362.034 341.987C363.345 335.53 364.246 329.035 365.638 322.578C367.891 312.07 370.512 301.636 373.216 291.202V291.165Z" fill="#E8E4DD"/>
<path d="M439.199 84.374C446.203 90.102 447.35 106.666 449.438 114.838C450.176 117.757 452.142 124.616 453.862 126.951C455.582 129.286 454.312 127.169 454.681 126.951C456.483 125.893 458.654 122.536 460.825 121.113C467.91 116.48 470.737 124.98 470.45 130.052C470.04 137.239 463.61 148.075 457.753 153.036C442.926 165.623 439.158 140.413 437.724 132.168C436.619 125.82 436.414 116.042 434.038 110.278C431.663 104.513 434.202 109.657 433.178 109.767C429.164 118.778 426.584 128.228 422.939 137.312C420.481 143.478 413.846 159.968 406.637 162.194C396.766 165.222 398.569 150.446 398.364 145.667C397.954 134.904 398.528 123.558 396.193 112.941C395.865 111.409 394.596 106.337 393.899 105.243C393.203 104.148 392.671 105.133 392.22 104.841L391.892 104.404C391.974 98.0919 394.759 98.1649 397.381 103.528C401.845 112.795 401.722 124.068 404.262 133.883C404.63 135.342 404.917 137.604 406.187 138.552C411.716 123.922 415.689 107.432 423.594 93.6774C426.174 89.1534 432.482 78.792 439.24 84.3376L439.199 84.374Z" fill="#E8E4DD"/>
<path d="M221.918 213.343C215.569 218.852 211.515 210.023 211.023 205.244C209.753 193.058 208.238 182.004 205.084 170.037C201.93 158.07 200.579 154.531 196.073 147.782C192.838 154.349 190.053 161.098 187.554 167.921C183.213 179.851 180.1 195.284 174.611 206.375C169.123 217.466 168.099 214.948 164.781 209.914C163.798 208.454 163.594 204.587 163.471 202.69C162.856 192.73 163.02 182.733 162.693 172.737C162.447 166.024 160.276 157.705 163.184 151.321C165.273 146.76 167.198 147.745 169.451 151.394C171.703 155.042 173.055 158.143 173.219 158.982C173.792 161.536 173.137 167.921 168.795 166.753C169.123 171.788 169.369 176.896 170.024 181.894C170.679 186.892 170.106 183.025 170.843 183.171C173.751 172.226 176.864 161.135 181.083 150.518C183.335 144.863 186.325 137.566 190.175 132.714C201.398 118.558 208.443 138.588 211.187 146.687C215.61 159.712 218.518 173.138 223.474 186.09C224.498 188.79 226.341 191.27 227.079 194.189C228.43 199.589 226.423 209.403 221.877 213.343H221.918Z" fill="#E8E4DD"/>
<path d="M482.575 59.0552L482.042 59.8943C484.254 72.8461 484.704 86.0532 486.957 98.9685C489.21 111.884 489.947 114.985 493.51 119.399C493.838 119.801 494.043 120.275 494.698 119.837C498.63 116.408 501.866 112.322 505.716 108.856C514.112 101.34 515.914 112.212 514.645 118.268C513.17 125.2 500.924 144.099 494.903 148.842C488.882 153.585 481.305 150.958 479.953 142.457C476.881 123.303 477.168 100.647 476.636 81.2009C476.431 74.196 476.636 67.1911 476.226 60.2227L462.014 63.3968C460.293 65.8047 457.672 64.4183 457.631 61.8645C457.508 57.1216 462.874 56.0271 466.97 54.3123C471.065 52.5976 475.079 51.576 475.366 50.8464C475.284 42.9659 475.12 35.0854 475.038 27.1684C474.997 20.0541 474.26 11.8087 475.612 4.73089C476.963 -2.34696 476.431 1.62977 477.701 0.75416C478.397 0.608225 478.52 1.22845 478.765 1.62977C479.011 2.0311 481.673 7.79553 479.339 7.32124L477.905 5.13221C477.782 19.7622 479.257 34.3557 480.772 48.9127C481.223 49.387 492.323 44.2428 493.469 43.6226C498.261 41.1782 506.085 33.8085 510.18 40.7769C513.744 46.7967 511.409 59.3106 503.504 62.0104L493.674 59.1282H482.616L482.575 59.0552Z" fill="#E8E4DD"/>
<path d="M291.012 56.829C292.896 57.8505 292.855 71.7508 293.101 74.4871C293.756 81.2366 294.699 88.132 295.6 94.8815C296.542 101.777 297.648 108.672 298.835 115.531C305.225 113.16 312.065 110.715 318.086 107.687C324.106 104.659 327.137 101.595 330.291 101.376C336.476 100.901 336.353 110.205 335.575 113.78C333.117 125.273 326.236 123.485 315.997 125.163C310.918 126.002 305.798 127.753 300.842 129.03C304.119 143.186 306.453 158.29 313.048 171.607C314.604 174.744 316.693 176.824 318.208 179.414C319.724 182.005 319.601 189.156 317.84 192.877C314.358 200.247 308.01 199.882 305.634 192.111C303.259 184.34 300.105 168.104 298.098 157.232C296.091 146.36 295.313 140.194 294.289 131.621C293.92 131.219 284.582 135.962 284.049 136.546C283.517 137.13 283.066 140.888 282.288 142.274C279.626 147.236 274.056 144.609 273.441 139.793C272.172 130.271 284.008 122.609 292.241 118.596C291.504 110.314 290.234 102.105 289.374 93.86C288.719 87.5118 289.005 78.6462 287.736 72.6994C287.531 71.7143 286.589 71.6049 286.302 71.0576C285.852 70.2185 286.015 65.9134 286.138 64.7094C286.261 63.5055 288.268 55.4061 290.971 56.8654L291.012 56.829Z" fill="#E8E4DD"/>
<path d="M266.765 128.045C265.823 127.17 262.628 127.06 261.318 127.206C256.853 127.681 251.324 132.569 249.358 136.072C255.01 149.68 270.861 160.48 272.213 175.547C273.114 185.544 269.305 198.897 260.54 205.646C256.648 208.638 248.375 211.958 243.747 208.93C234.285 202.728 235.146 184.559 244.402 178.503C252.266 173.358 251.693 184.303 257.877 182.844C264.062 181.385 259.925 180.947 259.27 179.013C253.863 162.523 230.722 148.294 243.706 128.264C250.587 117.611 271.557 110.862 272.581 129.176C272.663 130.636 272.131 141.581 268.69 138.48C265.25 135.379 268.608 129.76 266.765 127.973V128.045Z" fill="#E8E4DD"/>
</svg>
