<svg width="177" height="55" viewBox="0 0 177 55" fill="none" xmlns="http://www.w3.org/2000/svg">
<path d="M38.5657 10.2725C33.2121 10.0128 27.8591 10.4283 22.5182 10.6685C22.6696 11.5528 23.3548 12.5869 22.842 13.4616C22.3293 14.3363 22.4451 13.603 22.3195 14.3939C21.421 20.1975 20.8382 26.0244 19.8865 31.8283L19.2627 38.1047L27.5847 35.6315C28.7107 35.2227 29.8747 34.9041 31.0007 34.4953C32.108 34.0921 33.7244 32.9401 34.5373 34.4243C35.3501 35.9086 34.3435 38.2771 33.2368 39.3557C32.0755 40.4934 31.1111 39.7961 29.6945 39.7212C29.0258 39.6856 27.9848 39.8037 27.2892 39.8737C24.6267 40.1301 21.9921 40.7959 19.3872 41.3397C19.285 41.3661 19.242 41.4101 19.2252 41.5088C19.1391 41.8585 19.3269 42.5289 19.2455 42.9553C19.1165 43.6613 17.9674 45.7715 17.0245 45.0522C16.2232 44.4391 16.6296 43.0416 16.611 42.2116C16.5924 41.3815 16.6967 42.0728 16.5109 42.0695C11.9905 43.3309 7.27238 44.5027 2.98145 46.3987C2.70259 46.5245 2.09131 46.7257 1.88891 46.8717C1.43525 47.19 1.14916 47.8803 0.357584 47.4713C-0.0825003 46.7704 0.237423 45.9335 0.721343 45.3328C1.56884 44.2649 5.70496 42.8093 7.16733 42.2497C10.2891 41.0682 13.6025 40.1694 16.6883 38.9908C19.7741 37.8121 17.1444 38.8669 17.2213 38.6762L21.6976 10.7952C19.2863 10.8793 16.8946 11.4222 14.6964 12.3409C14.7064 12.908 15.2603 13.044 15.2408 13.7331C15.2102 14.8004 14.1731 16.5649 13.2146 15.0498C12.3113 13.6276 12.8712 11.5363 14.0093 10.3781C15.4369 8.92698 19.6542 8.14221 21.7254 7.76094C28.3997 6.51932 35.2608 6.31936 41.9619 5.23378C43.3425 5.31156 43.7884 6.60417 43.6933 7.73742C43.537 9.59555 41.6897 12.3662 40.4652 13.8234C39.8981 14.4956 38.5476 15.8067 37.7809 14.625C37.0229 13.4447 37.9186 11.3629 38.5657 10.2725Z" fill="#E8E4DD"/>
<path d="M125.488 40.5192C125.441 40.4039 125.473 40.1838 125.468 40.057L125.304 39.9975C122.389 42.0596 119.356 43.9719 116.336 45.8979C113.316 47.8239 112.896 48.6792 111.514 47.8467C109.901 46.8675 111.78 43.3939 112.652 42.3727C113.524 41.3516 117.44 39.3679 119.224 38.295C121.881 36.7099 124.44 34.973 127.11 33.4016C127.486 33.0745 128.09 31.064 128.316 30.459C129.848 26.2881 131.333 22.0916 132.802 17.9154C133.1 17.0603 133.483 16.2272 133.74 15.3572C131.577 14.901 129.187 14.9863 127.049 15.4935C124.911 16.0007 124.274 16.2774 123.87 16.6746C123.465 17.0718 123.91 16.8767 123.883 16.9915C123.569 18.1887 122.443 17.583 123.152 16.2889C123.862 14.9947 126.329 14.0899 127.43 13.6874C134.866 10.9585 148.975 11.8604 143.992 22.7962C141.171 28.9781 135.179 33.2223 129.642 37.0609C129.211 38.2691 128.824 39.3684 127.822 40.2707C127.303 40.7422 125.932 41.4658 125.504 40.5252L125.488 40.5192ZM130.522 31.2256C133.203 29.2565 136 27.3925 138.418 25.1224C140.835 22.8524 140.456 23.1873 140.888 21.8368C141.915 18.6152 137.844 16.3502 135.112 15.6778L130.834 29.7778L130.53 31.2286L130.522 31.2256Z" fill="#E8E4DD"/>
<path d="M153.286 29.043C152.329 30.862 150.102 34.452 147.636 34.3336C146.958 34.3049 146.491 34.2329 146.049 33.7512C144.998 32.6187 144.738 30.9157 144.791 29.4553C144.958 25.1848 148.306 18.1299 152.805 16.5782C153.07 16.4839 153.496 16.4822 153.712 16.3635C154.151 16.1274 154.585 15.4598 155.22 15.4311C157.169 15.3517 156.815 17.7956 156.9 18.9651C157.033 20.6398 158.377 24.6875 159.539 25.947C160.701 27.2065 161.121 26.7732 161.605 27.5821C162.845 29.6303 160.935 34.2313 158.408 34.7364C155.338 35.352 154.271 30.9758 153.279 29.0334L153.286 29.043ZM152.045 20.158C150.11 21.4633 148.216 24.4041 148.105 26.6743C148.085 27.0511 148.296 28.3666 148.871 28.1176C149.446 27.8687 150.147 26.7274 150.446 26.0645C151.265 24.2242 151.623 22.1186 152.044 20.1662L152.045 20.158Z" fill="#E8E4DD"/>
<path d="M84.0109 28.8257C83.8132 29.0484 84.1746 32.7167 84.3014 33.2764C86.6314 33.931 85.8787 36.6341 84.9079 38.1135C83.8428 39.7302 81.4584 40.021 80.7379 37.994C80.4603 37.2253 80.5915 36.4015 80.4336 35.6597C80.2757 34.9179 80.4326 35.4569 80.3056 35.4205C79.5325 36.6771 78.2003 38.4553 76.7075 38.9848C75.3758 39.4547 74.5515 39.1335 73.8283 38.0092C71.849 34.9272 74.9192 29.2473 76.845 26.59C78.167 24.7681 81.2162 21.1952 83.8724 21.9676C85.0902 22.3241 85.4414 23.965 85.3603 25.016C85.3212 25.5587 84.6228 28.4642 84.2827 28.741C83.9427 29.0178 84.0324 28.8037 84.0095 28.8339L84.0109 28.8257ZM84.1004 27.7254C84.29 26.7671 84.9601 25.6465 84.3445 24.7244C84.4644 25.6376 84.1721 26.521 84.0628 27.4242C83.9536 28.3273 83.9419 27.7178 84.1004 27.7254ZM81.7072 24.5711L80.8097 25.1502C79.5503 26.239 78.6335 27.5579 77.8252 28.9694C77.0169 30.381 75.8254 32.375 76.4859 33.3461C76.7268 33.704 77.0398 33.4822 77.3513 33.2685C79.7606 31.6311 80.222 26.8827 81.7159 24.5724L81.7072 24.5711Z" fill="#E8E4DD"/>
<path d="M167.595 29.7639C166.261 30.0393 165.681 28.8021 165.278 27.8284C164.155 25.1401 163.809 21.9553 163.19 19.1251L162.482 20.1554C161.826 20.5691 161.861 19.7895 161.845 19.3567C161.793 18.0488 161.765 15.6558 162.316 14.5001C163.128 12.8105 163.869 14.4525 164.253 15.381C165.161 17.5552 165.661 19.8353 166.805 21.9866C167.1 22.547 167.836 24.011 168.617 23.9118C169.397 23.8127 170.374 21.8278 170.758 21.3974C171.066 21.0482 171.729 20.5934 171.934 20.3295C172.139 20.0657 173.55 17.1941 173.702 16.7195C173.858 16.2202 173.731 15.9728 174.026 15.3346C174.321 14.6964 175.116 13.6287 175.49 12.7326L176.097 12.4548C176.547 12.5748 176.009 13.9099 175.915 14.1993C175.701 14.8838 175.432 15.5766 175.184 16.2558C174.689 17.5975 173.543 19.742 173.261 20.9815C172.979 22.221 173.308 21.5963 173.28 21.9129C173.066 24.3192 171.35 26.0044 170.336 28.0004C169.379 29.8701 168.421 33.0987 167.757 35.174C166.983 37.5868 166.255 40.1418 165.849 42.6366C165.617 44.0019 165.709 45.1303 165.005 46.4482C164.302 47.7662 162.735 49.3056 161.785 47.5302C160.863 45.8012 162.65 42.5993 163.284 40.857C163.809 39.4439 164.248 38.0092 164.79 36.5987C165.668 34.3033 166.622 32.0364 167.593 29.7721L167.595 29.7639Z" fill="#E8E4DD"/>
<path d="M99.7053 19.8831C100.965 21.4025 100.572 25.1739 100.7 27.0843C100.744 27.7662 100.896 29.3765 101.17 29.9589C101.443 30.5413 101.256 30.0229 101.343 29.9856C101.764 29.8057 102.351 29.1197 102.864 28.8697C104.539 28.0558 104.809 30.0642 104.554 31.1981C104.192 32.8051 102.419 35.0385 100.991 35.9664C97.3768 38.3212 97.5477 32.5151 97.5611 30.6096C97.571 29.1425 97.9027 26.9316 97.622 25.5547C97.3413 24.1779 97.6804 25.4202 97.4599 25.4116C96.2665 27.3124 95.3591 29.3586 94.2408 31.2879C93.4853 32.5979 91.4515 36.0995 89.8435 36.3665C87.6425 36.7277 88.5898 33.4554 88.7298 32.3712C89.056 29.9316 89.6123 27.3923 89.5263 24.9229C89.5158 24.5668 89.4421 23.3822 89.337 23.1128C89.2319 22.8434 89.0817 23.0481 88.9977 22.9676L88.9453 22.8583C89.2047 21.438 89.7901 21.5452 90.1381 22.8396C90.7257 25.074 90.2675 27.6115 90.4275 29.9067C90.4494 30.2477 90.4232 30.7669 90.655 31.0221C92.3839 27.904 93.8554 24.3157 96.0525 21.4724C96.771 20.5365 98.5006 18.406 99.7154 19.8763L99.7053 19.8831Z" fill="#E8E4DD"/>
<path d="M48.862 41.8837C47.3098 42.9189 46.7919 40.7965 46.8714 39.7031C47.0705 36.9146 47.1743 34.3732 46.9671 31.5728C46.7599 28.7723 46.6101 27.9305 45.9173 26.2622C44.982 27.6373 44.135 29.0682 43.3456 30.5249C41.9711 33.0731 40.7218 36.4508 39.1373 38.7725C37.5527 41.0941 37.433 40.4933 36.9253 39.2502C36.7736 38.8892 36.8787 38.0107 36.9255 37.579C37.1777 35.3137 37.5956 33.0654 37.9098 30.8011C38.1153 29.2798 37.9758 27.3338 38.8348 25.9892C39.4509 25.0291 39.8197 25.3138 40.1556 26.2096C40.4915 27.1055 40.6581 27.8486 40.6605 28.0431C40.6837 28.6375 40.3005 30.0555 39.4282 29.651C39.3044 30.7967 39.1604 31.9561 39.1071 33.1043C39.0539 34.2524 39.0811 33.3619 39.2312 33.4188C40.2651 31.046 41.3479 28.6471 42.6461 26.391C43.3388 25.1895 44.2501 23.6419 45.2494 22.6733C48.1626 19.8475 48.8825 24.5923 49.1515 26.5076C49.5864 29.5879 49.6857 32.7093 50.2358 35.7905C50.3486 36.4324 50.6427 37.0517 50.6865 37.7337C50.7649 38.995 49.9647 41.1421 48.8533 41.8824L48.862 41.8837Z" fill="#E8E4DD"/>
<path d="M109.835 15.5872L109.691 15.759C109.661 18.7509 109.25 21.7429 109.23 24.7279C109.211 27.7128 109.248 28.4359 109.831 29.5471C109.885 29.6483 109.91 29.7619 110.065 29.6845C111.027 29.0394 111.867 28.2236 112.813 27.5676C114.875 26.1466 114.839 28.6563 114.338 29.9803C113.761 31.495 110.45 35.3567 108.996 36.2299C107.542 37.1031 106.043 36.2642 106.083 34.3038C106.169 29.8857 107.098 24.7875 107.732 20.3863C107.957 18.8005 108.269 17.228 108.45 15.6437L105.326 15.8965C104.87 16.3833 104.37 15.9854 104.459 15.4084C104.615 14.3351 105.79 14.2631 106.721 14.0099C107.652 13.7567 108.539 13.6571 108.627 13.5019C108.912 11.7227 109.18 9.9408 109.466 8.15335C109.73 6.54818 109.891 4.66537 110.448 3.11376C111.005 1.56216 110.74 2.44132 111.041 2.28527C111.194 2.27504 111.196 2.41887 111.233 2.51734C111.269 2.61581 111.611 4.00202 111.136 3.81908L110.917 3.27891C110.33 6.57306 110.082 9.911 109.843 13.242C109.92 13.3636 112.462 12.5653 112.728 12.4629C113.834 12.0678 115.769 10.6611 116.367 12.3654C116.889 13.8385 115.916 16.5836 114.143 16.9349L112.177 15.9651L109.841 15.605L109.835 15.5872Z" fill="#E8E4DD"/>
<path d="M69.4588 8.84767C69.8176 9.13931 69.2759 12.2716 69.2228 12.8965C69.1024 14.4394 69.037 16.0246 68.9685 17.5755C68.903 19.1607 68.8722 20.7512 68.86 22.3361C70.3005 22.0095 71.839 21.6812 73.2268 21.1946C74.6146 20.7079 75.3723 20.1157 76.0469 20.1691C77.3713 20.2635 76.9886 22.3569 76.6871 23.1375C75.7274 25.6483 74.3426 25.0213 72.1154 25.0662C71.0105 25.09 69.862 25.3181 68.7663 25.4446C68.9155 28.7425 68.8294 32.2236 69.7115 35.4404C69.92 36.1984 70.2814 36.7352 70.5022 37.3685C70.7229 38.0018 70.4228 39.6099 69.9081 40.3915C68.8901 41.9395 67.5632 41.6506 67.3594 39.8214C67.1557 37.9921 67.1121 34.2294 67.1052 31.7131C67.0982 29.1967 67.1703 27.7814 67.2828 25.8152C67.2203 25.7127 65.066 26.4779 64.9311 26.5922C64.7963 26.7064 64.557 27.5389 64.3395 27.8261C63.5869 28.858 62.5111 28.0845 62.566 26.9788C62.663 24.7908 65.4569 23.449 67.3497 22.8123C67.5116 20.9213 67.5582 19.0293 67.6927 17.1425C67.7977 15.6901 68.1982 13.7008 68.1581 12.3188C68.1526 12.09 67.9579 12.0347 67.9183 11.902C67.8553 11.6981 68.055 10.733 68.1271 10.4655C68.1992 10.1981 68.9337 8.43756 69.4487 8.85456L69.4588 8.84767Z" fill="#E8E4DD"/>
<path d="M61.6118 24.114C61.4464 23.8859 60.7759 23.7572 60.4934 23.7474C59.5323 23.709 58.1769 24.6311 57.6274 25.3567C58.2994 28.6086 61.2332 31.5592 60.9408 35.0001C60.7478 37.283 59.4312 40.1692 57.3211 41.4054C56.3845 41.9532 54.5097 42.4323 53.6482 41.5989C51.8877 39.8926 52.7661 35.8247 54.9535 34.7608C56.8117 33.8571 56.2709 36.3059 57.6332 36.1783C58.9954 36.0506 58.1385 35.8172 58.0742 35.36C57.5647 31.4663 53.2225 27.5052 56.7329 23.4125C58.5948 21.2349 63.283 20.3961 62.7969 24.5583C62.7583 24.89 62.2261 27.3401 61.6183 26.529C61.0105 25.7178 61.9354 24.5606 61.6146 24.0975L61.6118 24.114Z" fill="#E8E4DD"/>
</svg>
